<?xml version="1.0" encoding="UTF-8" standalone="no"?>
<!-- Generator: Adobe Illustrator 16.0.0, SVG Export Plug-In . SVG Version: 6.00 Build 0)  -->

<svg
   xmlns:dc="http://purl.org/dc/elements/1.1/"
   xmlns:cc="http://creativecommons.org/ns#"
   xmlns:rdf="http://www.w3.org/1999/02/22-rdf-syntax-ns#"
   xmlns:svg="http://www.w3.org/2000/svg"
   xmlns="http://www.w3.org/2000/svg"
   xmlns:sodipodi="http://sodipodi.sourceforge.net/DTD/sodipodi-0.dtd"
   xmlns:inkscape="http://www.inkscape.org/namespaces/inkscape"
   version="1.1"
   id="Layer_1"
   x="0px"
   y="0px"
   width="40.232468"
   height="69.132996"
   viewBox="0 0 40.232468 69.132995"
   enable-background="new 0 0 90 90"
   xml:space="preserve"
   inkscape:version="0.48.2 r9819"
   sodipodi:docname="GDG_Logo.svg"><metadata
   id="metadata136"><rdf:RDF><cc:Work
       rdf:about=""><dc:format>image/svg+xml</dc:format><dc:type
         rdf:resource="http://purl.org/dc/dcmitype/StillImage" /></cc:Work></rdf:RDF></metadata><defs
   id="defs134" /><sodipodi:namedview
   pagecolor="#ffffff"
   bordercolor="#666666"
   borderopacity="1"
   objecttolerance="10"
   gridtolerance="10"
   guidetolerance="10"
   inkscape:pageopacity="0"
   inkscape:pageshadow="2"
   inkscape:window-width="752"
   inkscape:window-height="585"
   id="namedview132"
   showgrid="false"
   fit-margin-top="0"
   fit-margin-left="0"
   fit-margin-right="0"
   fit-margin-bottom="0"
   inkscape:zoom="2.6222222"
   inkscape:cx="20.116344"
   inkscape:cy="34.565997"
   inkscape:window-x="0"
   inkscape:window-y="0"
   inkscape:window-maximized="0"
   inkscape:current-layer="g3" />
<g
   id="g3"
   transform="translate(-24.883657,-10.433)">
	
	
	<g
   id="g84">
		<g
   id="g86">
			<radialGradient
   id="SVGID_3_"
   cx="23.305201"
   cy="9.0150995"
   r="80.755798"
   gradientUnits="userSpaceOnUse">
				<stop
   offset="0"
   style="stop-color:#FFCE4E"
   id="stop89" />
				<stop
   offset="1"
   style="stop-color:#F5C337"
   id="stop91" />
			</radialGradient>
			<path
   d="M 49.672,53.832 34.18,79.566 h 7.824 c 1.853,0 4.152,-1.299 5.108,-2.894 l 6.591,-10.968 c 0.778,-1.606 0.751,-3.947 -0.138,-5.43 l -3.893,-6.442 z"
   id="path93"
   inkscape:connector-curvature="0"
   style="fill:url(#SVGID_3_)" />
			<radialGradient
   id="SVGID_4_"
   cx="23.306601"
   cy="9.0176001"
   r="80.752098"
   gradientUnits="userSpaceOnUse">
				<stop
   offset="0"
   style="stop-color:#0DA960"
   id="stop96" />
				<stop
   offset="1"
   style="stop-color:#05924B"
   id="stop98" />
			</radialGradient>
			<path
   d="m 42.591,42.11 c 0.955,1.588 0.955,4.191 0,5.786 L 25.19,76.99 c -0.672,1.437 0.026,2.576 1.753,2.576 h 7.236 L 49.671,53.832 42.591,42.11 z"
   id="path100"
   inkscape:connector-curvature="0"
   style="fill:url(#SVGID_4_)" />
			<radialGradient
   id="SVGID_5_"
   cx="23.305201"
   cy="9.0165997"
   r="80.752502"
   gradientUnits="userSpaceOnUse">
				<stop
   offset="0"
   style="stop-color:#577EC0"
   id="stop103" />
				<stop
   offset="1"
   style="stop-color:#557EBF"
   id="stop105" />
			</radialGradient>
			<path
   d="m 26.943,10.434 c -1.858,0 -2.597,1.305 -1.641,2.894 l 28.263,46.948 c 0.889,1.482 0.916,3.823 0.138,5.43 l 6.87,-11.434 -26.39,-43.838 h -7.24 z"
   id="path107"
   inkscape:connector-curvature="0"
   style="fill:url(#SVGID_5_)" />
			<radialGradient
   id="SVGID_6_"
   cx="23.3076"
   cy="9.0165997"
   r="80.750603"
   gradientUnits="userSpaceOnUse">
				<stop
   offset="0"
   style="stop-color:#E04B3F"
   id="stop110" />
				<stop
   offset="1"
   style="stop-color:#CD382D"
   id="stop112" />
			</radialGradient>
			<path
   d="M 64.399,42.11 47.112,13.327 c -0.956,-1.589 -3.256,-2.894 -5.108,-2.894 h -7.82 l 26.39,43.838 3.826,-6.375 c 0.955,-1.594 0.955,-4.198 -0.001,-5.786 z"
   id="path114"
   inkscape:connector-curvature="0"
   style="fill:url(#SVGID_6_)" />
			<linearGradient
   id="SVGID_7_"
   gradientUnits="userSpaceOnUse"
   x1="57.7617"
   y1="53.9077"
   x2="38.307201"
   y2="53.9077">
				<stop
   offset="0"
   style="stop-color:#231F20;stop-opacity:0.2"
   id="stop117" />
				<stop
   offset="1"
   style="stop-color:#F2F2F2;stop-opacity:0.25"
   id="stop119" />
			</linearGradient>
			<path
   d="M 53.565,60.275 42.591,42.11 c 0.955,1.588 0.955,4.191 0,5.786 l -3.863,6.434 14.976,11.375 c 0.777,-1.606 0.75,-3.947 -0.139,-5.43 z"
   id="path121"
   inkscape:connector-curvature="0"
   style="fill:url(#SVGID_7_)" />
		</g>
		<radialGradient
   id="SVGID_8_"
   cx="45"
   cy="45"
   r="28.2798"
   gradientUnits="userSpaceOnUse">
			<stop
   offset="0"
   style="stop-color:#FFFFFF;stop-opacity:0.1"
   id="stop124" />
			<stop
   offset="0.0896"
   style="stop-color:#FFFFFF;stop-opacity:0.091"
   id="stop126" />
			<stop
   offset="1"
   style="stop-color:#FFFFFF;stop-opacity:0"
   id="stop128" />
		</radialGradient>
		<path
   d="M 64.399,42.11 47.112,13.327 c -0.956,-1.589 -3.256,-2.894 -5.108,-2.894 h -7.82 -7.24 c -1.858,0 -2.597,1.305 -1.641,2.894 L 42.591,42.11 c 0.955,1.588 0.955,4.191 0,5.786 L 25.19,76.99 c -0.672,1.437 0.026,2.576 1.753,2.576 h 7.236 7.824 c 1.853,0 4.152,-1.299 5.108,-2.894 l 13.461,-22.401 3.826,-6.375 c 0.957,-1.594 0.957,-4.198 0.001,-5.786 z"
   id="path130"
   inkscape:connector-curvature="0"
   style="fill:url(#SVGID_8_)" />
	</g>
</g>
</svg>