<?xml version="1.0" encoding="UTF-8"?>
<!DOCTYPE svg PUBLIC "-//W3C//DTD SVG 1.1//EN" "http://www.w3.org/Graphics/SVG/1.1/DTD/svg11.dtd">
<!-- Creator: CorelDRAW X6 -->
<svg xmlns="http://www.w3.org/2000/svg" xml:space="preserve" width="190.424mm" height="67.587mm" version="1.1" shape-rendering="geometricPrecision" text-rendering="geometricPrecision" image-rendering="optimizeQuality" fill-rule="evenodd" clip-rule="evenodd"
viewBox="0 0 19042 6759"
 xmlns:xlink="http://www.w3.org/1999/xlink">
 <g id="Capa_x0020_1">
  <metadata id="CorelCorpID_0Corel-Layer"/>
  <path fill="#D64430" fill-rule="nonzero" d="M8243 3222c0,401 -139,752 -416,1051 -302,325 -697,488 -1185,488 -470,0 -853,-160 -1147,-481 -260,-287 -391,-625 -391,-1013 0,-422 154,-784 463,-1086 309,-302 698,-453 1169,-453 445,0 813,154 1103,462 269,287 403,631 403,1032zm-1455 1349c273,0 487,-108 643,-323 126,-173 189,-407 189,-703 0,-367 -76,-707 -227,-1020 -197,-401 -470,-602 -819,-602 -218,0 -407,72 -567,215 -193,173 -290,431 -290,773 0,384 84,739 252,1064 202,397 475,595 819,595z"/>
  <path id="1" fill="#FFB80A" fill-rule="nonzero" d="M11630 3222c0,401 -139,752 -416,1051 -302,325 -697,488 -1185,488 -470,0 -853,-160 -1147,-481 -260,-287 -391,-625 -391,-1013 0,-422 154,-784 463,-1086 309,-302 698,-453 1169,-453 445,0 813,154 1103,462 269,287 403,631 403,1032zm-1455 1349c273,0 487,-108 643,-323 126,-173 189,-407 189,-703 0,-367 -76,-707 -227,-1020 -197,-401 -470,-602 -819,-602 -218,0 -407,72 -567,215 -193,173 -290,431 -290,773 0,384 84,739 252,1064 202,397 475,595 819,595z"/>
  <path id="2" fill="none" fill-rule="nonzero" stroke="#D6412B" stroke-width="35.28" d="M8243 3222c0,401 -139,752 -416,1051 -302,325 -697,488 -1185,488 -470,0 -853,-160 -1147,-481 -260,-287 -391,-625 -391,-1013 0,-422 154,-784 463,-1086 309,-302 698,-453 1169,-453 445,0 813,154 1103,462 269,287 403,631 403,1032zm-1455 1349c273,0 487,-108 643,-323 126,-173 189,-407 189,-703 0,-367 -76,-707 -227,-1020 -197,-401 -470,-602 -819,-602 -218,0 -407,72 -567,215 -193,173 -290,431 -290,773 0,384 84,739 252,1064 202,397 475,595 819,595z"/>
  <path id="3" fill="none" fill-rule="nonzero" stroke="#FFB718" stroke-width="35.28" d="M11630 3222c0,401 -139,752 -416,1051 -302,325 -697,488 -1185,488 -470,0 -853,-160 -1147,-481 -260,-287 -391,-625 -391,-1013 0,-422 154,-784 463,-1086 309,-302 698,-453 1169,-453 445,0 813,154 1103,462 269,287 403,631 403,1032zm-1455 1349c273,0 487,-108 643,-323 126,-173 189,-407 189,-703 0,-367 -76,-707 -227,-1020 -197,-401 -470,-602 -819,-602 -218,0 -407,72 -567,215 -193,173 -290,431 -290,773 0,384 84,739 252,1064 202,397 475,595 819,595z"/>
  <path fill="#1D71EF" stroke="#1D71EF" stroke-width="20" d="M3843 1259l609 -635c-1985,-1276 -4420,-143 -4383,1841 33,1757 1520,2949 4392,2057l18 -1244 273 -273 -1490 0 -273 256 847 0 0 1164c-1536,433 -2980,-345 -3078,-2064 -72,-1944 1908,-2553 3085,-1510l2 408z"/>
  <path fill="#186DEE" d="M14145 1994l344 0 238 -256 -1486 0c-1483,-11 -1782,2288 31,2240 -90,230 -75,443 141,626 -2613,257 -1786,1976 -635,2010 399,29 277,22 529,28 809,-25 1236,-364 1413,-842 151,-408 37,-1031 -709,-1461 -47,-27 -83,-65 -113,-107 -30,-42 -52,-88 -71,-130 -23,-131 72,-289 165,-349 732,-468 780,-1183 152,-1759zm-761 1781c171,0 317,-60 436,-180 107,-107 160,-263 160,-469 0,-270 -68,-524 -205,-764 -158,-278 -359,-417 -603,-417 -223,0 -387,94 -494,282 -64,107 -96,242 -96,404 0,261 64,505 193,732 154,274 357,411 610,411zm964 1883c0,-155 -56,-294 -168,-419 -86,-95 -264,-238 -535,-432 -34,-4 -84,-6 -148,-6 -249,0 -475,34 -677,103 -369,129 -554,350 -554,664 0,232 104,421 313,567 208,146 482,219 822,219 301,0 537,-67 709,-200 159,-125 238,-290 238,-496z"/>
  <path fill="#05A35E" stroke="#05A35E" stroke-width="20" d="M15204 524l-406 0 265 -282 1050 0 -256 291 0 3810c17,154 160,208 467,220l-150 203 -1252 0 282 -265 0 -3978z"/>
  <path fill="#DA4E3A" stroke="#DA4E3A" stroke-width="20" d="M16961 3322l1940 -785c-101,-734 -1196,-1001 -1826,-644 -1872,1110 -27,4176 1935,2355 -986,412 -1676,120 -2050,-926zm1153 -681l-1202 465c-73,-508 -10,-943 558,-1144 244,-68 625,92 750,397 70,146 25,224 -106,282z"/>
  <path fill="none" stroke="#DA4E3A" stroke-width="20" d="M18114 2641l-1202 465c-73,-508 -10,-943 558,-1144 244,-68 625,92 750,397 70,146 25,224 -106,282z"/>
 </g>
</svg>
